<svg fill="#FFFFFF" xmlns="http://www.w3.org/2000/svg"  viewBox="0 0 64 64" width="64px" height="64px"><path d="M52,8H12c-2.209,0-4,1.791-4,4v40c0,2.209,1.791,4,4,4h40c2.209,0,4-1.791,4-4V12C56,9.791,54.209,8,52,8z M47,19.5	l-1.821,2.197C45.064,21.811,45,21.965,45,22.125V41.75c0,0.16,0.064,0.314,0.179,0.428L47,44.546V45H37v-0.454l2.821-2.368	C39.936,42.064,40,41.91,40,41.75V23.879L31.848,45h-0.001h-1.543L22,24.375v16.108c0,0.22,0.076,0.433,0.215,0.605L25,44.546V45h-8	v-0.454l2.783-3.438C19.923,40.936,20,40.721,20,40.5V22.388c0-0.142-0.05-0.279-0.142-0.388L18,19.5V19h7.097l7.624,19.183	L40.002,19H47V19.5z"/></svg>