<svg width="30" height="24" viewBox="0 0 30 24" fill="none" xmlns="http://www.w3.org/2000/svg">
<path d="M24.71 5.89C24 6.2 23.2 6.4 22.4 6.53C23.22 6.03 23.85 5.24 24.15 4.3C23.38 4.76 22.53 5.1 21.62 5.3C20.92 4.5 19.9 4 18.7 4C16.5 4 14.71 5.81 14.71 8.04C14.71 8.34 14.71 8.64 14.81 8.96C11.54 8.8 8.60001 7.2 6.60001 4.7C6.30001 5.3 6.10001 6 6.10001 6.77C6.10001 8.17 6.80001 9.37 7.90001 10.13C7.25001 10.11 6.63001 9.93 6.09001 9.62C6.09001 9.62 6.09001 9.62 6.09001 9.72C6.09001 11.72 7.49001 13.32 9.29001 13.68C8.95001 13.77 8.60001 13.82 8.24001 13.82C7.98001 13.82 7.73001 13.79 7.49001 13.75C8.00001 15.35 9.49001 16.55 11.19 16.55C9.83001 17.63 8.11001 18.28 6.24001 18.28C5.92001 18.28 5.60001 18.26 5.29001 18.22C7.05001 19.3 9.10001 20 11.4 20C18.73 20 22.74 13.85 22.74 8.51C22.74 8.33 22.74 8.16 22.73 7.99C23.5 7.4 24.2 6.7 24.7 5.89H24.71Z" fill="white"/>
</svg>
